#!OML:ASF X:\für Bonn\!DataBase\2005_08_10_Bjorn_Final\c3d\bjorn.ASF
:FULLY-SPECIFIED
:DEGREES
123
root 15.9603 18.4713 0.573947 165.938 -106.974 -131.433
lowerback 52.498 -1.56528 13.1508
upperback 20.9454 1.15052 2.28274
thorax 3.39473 0.685841 -3.83574
lowerneck 6.85851 -8.48354 11.8176
upperneck -18.8045 -10.0339 1.07417
head -7.51285 -5.90018 -0.631342
rclavicle -6.36111e-014 4.13472e-014
rhumerus 57.361 -9.60021 -40.1134
rradius 22.473
rwrist -17.1889
rhand -18.3824 9.75231
rfingers 7.12502
rthumb 7.90125 -20.08
lclavicle -6.36111e-014 4.13472e-014
lhumerus -13.1695 -39.0822 86.4379
lradius 50.1469
lwrist -4.74909
lhand -26.0742 -10.6455
lfingers 7.12502
lthumb 0.474075 19.3338
rfemur -65.5704 -12.3371 4.84645
rtibia 51.4544
rfoot -13.8533 1.03592
rtoes -11.3627
lfemur -61.9681 3.44494 -33.5282
ltibia 43.0224
lfoot -6.84278 0.761032
ltoes -10.7763
124
root 15.9442 18.4533 0.595504 165.868 -106.893 -131.227
lowerback 53.4296 -1.70935 13.182
upperback 20.726 1.14692 2.1602
thorax 3.07078 0.67434 -3.94279
lowerneck 6.75886 -8.43529 11.8679
upperneck -18.9514 -9.99121 1.02041
head -7.54741 -5.88883 -0.660933
rclavicle -2.8625e-014 0
rhumerus 57.9462 -9.94927 -40.2554
rradius 22.2401
rwrist -17.1638
rhand -18.6807 10.0517
rfingers 7.12502
rthumb 7.61337 -19.7913
lclavicle -2.8625e-014 0
lhumerus -12.9726 -38.975 86.1128
lradius 50.5426
lwrist -4.71871
lhand -26.8456 -10.6953
lfingers 7.12502
lthumb -0.270955 19.2842
rfemur -65.7789 -12.0698 4.60104
rtibia 51.7539
rfoot -14.0908 0.788593
rtoes -11.711
lfemur -62.2713 3.34201 -33.4902
ltibia 43.4101
lfoot -7.0407 0.983706
ltoes -11.3774
125
root 15.9273 18.4371 0.61697 165.695 -106.796 -130.913
lowerback 54.362 -1.84456 13.1935
upperback 20.4914 1.14742 2.01538
thorax 2.737 0.665569 -4.06703
lowerneck 6.66231 -8.37625 11.9227
upperneck -19.0586 -9.93293 0.958488
head -7.56906 -5.86726 -0.696539
rclavicle -3.49861e-014 2.38542e-014
rhumerus 58.5529 -10.3469 -40.5692
rradius 21.9476
rwrist -16.9388
rhand -18.9632 10.4087
rfingers 7.12502
rthumb 7.34064 -19.444
lclavicle -3.49861e-014 2.38542e-014
lhumerus -12.8179 -38.8156 85.7893
lradius 50.9392
lwrist -4.7404
lhand -27.571 -10.8153
lfingers 7.12502
lthumb -0.971538 19.1622
rfemur -65.9716 -11.7758 4.31703
rtibia 52.0194
rfoot -14.3175 0.531976
rtoes -11.8681
lfemur -62.5654 3.23885 -33.4616
ltibia 43.783
lfoot -7.23774 1.22119
ltoes -11.7225
126
root 15.91 18.4216 0.638453 165.62 -106.696 -130.723
lowerback 55.328 -1.99522 13.2028
upperback 20.2384 1.1372 1.88173
thorax 2.38839 0.648053 -4.17309
lowerneck 6.62069 -8.31454 11.9418
upperneck -19.2031 -9.86209 0.925453
head -7.60844 -5.84085 -0.715413
rclavicle -2.22639e-014 1.59028e-014
rhumerus 59.176 -10.6692 -40.8449
rradius 21.6746
rwrist -16.7307
rhand -19.2375 10.7707
rfingers 7.12502
rthumb 7.07586 -19.091
lclavicle -2.22639e-014 1.59028e-014
lhumerus -12.6913 -38.585 85.5066
lradius 51.3193
lwrist -4.70538
lhand -28.4111 -11.0002
lfingers 7.12502
lthumb -1.78294 18.9721
rfemur -66.1086 -11.4089 4.00927
rtibia 52.2604
rfoot -14.5778 0.198371
rtoes -12.0644
lfemur -62.825 3.14613 -33.3987
ltibia 44.142
lfoot -7.44766 1.39794
ltoes -12.0187
127
root 15.8905 18.4095 0.66009 165.549 -106.564 -130.559
lowerback 56.3053 -2.14228 13.2287
upperback 19.9792 1.13864 1.7225
thorax 2.04488 0.640334 -4.31779
lowerneck 6.59165 -8.26248 12.0441
upperneck -19.3267 -9.79771 0.852553
head -7.65062 -5.81816 -0.758764
rclavicle -2.8625e-014 3.18055e-015
rhumerus 59.7635 -10.9959 -41.1603
rradius 21.3912
rwrist -16.4716
rhand -19.551 11.0853
rfingers 7.12502
rthumb 6.77323 -18.7863
lclavicle -2.8625e-014 3.18055e-015
lhumerus -12.5984 -38.3813 85.1893
lradius 51.7519
lwrist -4.60548
lhand -29.1676 -11.1547
lfingers 7.12502
lthumb -2.51361 18.8102
rfemur -66.1897 -10.9449 3.66995
rtibia 52.4611
rfoot -14.8395 -0.205499
rtoes -12.2509
lfemur -63.044 3.10661 -33.335
ltibia 44.4798
lfoot -7.66251 1.55027
ltoes -12.3013
128
root 15.8718 18.3982 0.682479 165.514 -106.426 -130.447
lowerback 57.2791 -2.30236 13.2531
upperback 19.7157 1.12487 1.56425
thorax 1.7047 0.624784 -4.45568
lowerneck 6.62835 -8.20666 12.0725
upperneck -19.4805 -9.71857 0.827718
head -7.7067 -5.788 -0.773613
rclavicle -6.99722e-014 6.36111e-015
rhumerus 60.3663 -11.2708 -41.4867
rradius 21.1147
rwrist -16.1636
rhand -19.8753 11.3988
rfingers 7.12502
rthumb 6.46016 -18.4827
lclavicle -6.99722e-014 6.36111e-015
lhumerus -12.5112 -38.1185 84.874
lradius 52.1915
lwrist -4.4896
lhand -29.913 -11.2983
lfingers 7.12502
lthumb -3.23344 18.657
rfemur -66.2374 -10.4716 3.34077
rtibia 52.6272
rfoot -15.0902 -0.609395
rtoes -12.3884
lfemur -63.2301 3.0527 -33.2293
ltibia 44.8035
lfoot -7.87618 1.66904
ltoes -12.4304
129
root 15.8512 18.3902 0.704458 165.539 -106.262 -130.42
lowerback 58.2873 -2.45364 13.2562
upperback 19.4361 1.11633 1.41015
thorax 1.35275 0.607678 -4.58105
lowerneck 6.65667 -8.14576 12.1628
upperneck -19.589 -9.63569 0.746879
head -7.75233 -5.75318 -0.817906
rclavicle -4.45278e-014 7.95139e-015
rhumerus 60.9828 -11.4774 -41.7445
rradius 20.8357
rwrist -15.942
rhand -20.2144 11.626
rfingers 7.12502
rthumb 6.13287 -18.2652
lclavicle -4.45278e-014 7.95139e-015
lhumerus -12.4732 -37.7762 84.5782
lradius 52.6447
lwrist -4.37945
lhand -30.5591 -11.5077
lfingers 7.12502
lthumb -3.85738 18.4372
rfemur -66.2503 -9.98226 3.05677
rtibia 52.758
rfoot -15.3285 -1.01021
rtoes -12.5633
lfemur -63.3887 3.09115 -33.1478
ltibia 45.106
lfoot -8.08554 1.67732
ltoes -12.737
130
root 15.8308 18.3834 0.72652 165.575 -106.094 -130.414
lowerback 59.2563 -2.5995 13.2571
upperback 19.1803 1.1018 1.26145
thorax 1.03766 0.589613 -4.69948
lowerneck 6.71069 -8.09095 12.2297
upperneck -19.7415 -9.5599 0.674405
head -7.81576 -5.72298 -0.853111
rclavicle 4.13472e-014 3.81667e-014
rhumerus 61.6523 -11.7067 -42.1159
rradius 20.5101
rwrist -15.5655
rhand -20.5962 11.8907
rfingers 7.12502
rthumb 5.76425 -18.0109
lclavicle 4.13472e-014 3.81667e-014
lhumerus -12.3744 -37.4428 84.2549
lradius 53.0244
lwrist -4.27858
lhand -31.2086 -11.6611
lfingers 7.12502
lthumb -4.48452 18.2714
rfemur -66.2507 -9.55599 2.83533
rtibia 52.863
rfoot -15.5518 -1.33596
rtoes -12.7402
lfemur -63.5343 3.16692 -33.0875
ltibia 45.396
lfoot -8.28261 1.65549
ltoes -13.2004
131
root 15.8094 18.3791 0.747724 165.763 -105.914 -130.586
lowerback 60.2521 -2.75631 13.2841
upperback 18.9204 1.09141 1.11576
thorax 0.729932 0.574561 -4.82599
lowerneck 6.67899 -8.03244 12.3282
upperneck -19.8014 -9.48882 0.591781
head -7.83559 -5.6929 -0.90216
rclavicle -4.45278e-014 -4.92986e-014
rhumerus 62.3136 -11.9134 -42.4064
rradius 20.194
rwrist -15.2696
rhand -20.9703 12.0247
rfingers 7.12502
rthumb 5.40303 -17.8864
lclavicle -4.45278e-014 -4.92986e-014
lhumerus -12.2477 -37.0973 83.909
lradius 53.3505
lwrist -4.24044
lhand -31.9158 -11.9044
lfingers 7.12502
lthumb -5.16739 18.0126
rfemur -66.2234 -9.14835 2.6847
rtibia 52.9455
rfoot -15.7472 -1.61741
rtoes -12.7852
lfemur -63.6466 3.23915 -32.9666
ltibia 45.6739
lfoot -8.45447 1.66235
ltoes -13.7872
132
root 15.7882 18.3729 0.770075 165.851 -105.731 -130.646
lowerback 61.2024 -2.88127 13.2438
upperback 18.6717 1.07435 0.999612
thorax 0.435683 0.549347 -4.89252
lowerneck 6.75511 -7.96171 12.3522
upperneck -19.9467 -9.39734 0.503506
head -7.89735 -5.65024 -0.937564
rclavicle 8.90555e-014 -1.27222e-014
rhumerus 62.9231 -11.9845 -42.4794
rradius 19.9701
rwrist -15.2818
rhand -21.4511 12.0865
rfingers 7.12502
rthumb 4.9388 -17.8359
lclavicle 8.90555e-014 -1.27222e-014
lhumerus -12.148 -36.66 83.6449
lradius 53.6162
lwrist -4.18544
lhand -32.7142 -12.2276
lfingers 7.12502
lthumb -5.93831 17.6692
rfemur -66.2145 -8.75855 2.52399
rtibia 53.0189
rfoot -15.9366 -1.89137
rtoes -13.0223
lfemur -63.7612 3.33008 -32.8841
ltibia 45.9434
lfoot -8.6277 1.64538
ltoes -14.15
133
root 15.7685 18.3688 0.790564 166.05 -105.558 -130.83
lowerback 62.157 -3.01031 13.2131
upperback 18.4048 1.06313 0.8918
thorax 0.13047 0.525634 -4.95604
lowerneck 6.81946 -7.91519 12.3735
upperneck -20.0404 -9.34068 0.417961
head -7.94154 -5.62176 -0.969834
rclavicle -3.81667e-014 4.92986e-014
rhumerus 63.5199 -12.044 -42.6247
rradius 19.7397
rwrist -15.3006
rhand -21.9753 12.1625
rfingers 7.12502
rthumb 4.43258 -17.7711
lclavicle -3.81667e-014 4.92986e-014
lhumerus -12.0615 -36.2234 83.3877
lradius 53.8253
lwrist -4.1638
lhand -33.6118 -12.5925
lfingers 7.12502
lthumb -6.80487 17.2781
rfemur -66.1858 -8.3788 2.39368
rtibia 53.0779
rfoot -16.1089 -2.16833
rtoes -13.0081
lfemur -63.8668 3.38548 -32.7519
ltibia 46.208
lfoot -8.78746 1.68646
ltoes -14.6931
134
root 15.7489 18.3639 0.8113 166.147 -105.396 -130.924
lowerback 63.0836 -3.12578 13.1563
upperback 18.1709 1.04138 0.796149
thorax -0.133202 0.49755 -4.99342
lowerneck 6.8503 -7.85602 12.3857
upperneck -20.1451 -9.27624 0.322513
head -7.98276 -5.58939 -1.00617
rclavicle 7.63333e-014 1.43125e-014
rhumerus 64.3201 -12.2844 -43.3567
rradius 19.3824
rwrist -14.7361
rhand -22.4413 12.2585
rfingers 7.12502
rthumb 3.98263 -17.684
lclavicle 7.63333e-014 1.43125e-014
lhumerus -11.9169 -35.7813 83.1402
lradius 54.0002
lwrist -4.07191
lhand -34.4832 -12.9789
lfingers 7.12502
lthumb -7.646 16.8629
rfemur -66.1458 -8.04445 2.26481
rtibia 53.1348
rfoot -16.2662 -2.37905
rtoes -13.1322
lfemur -63.9518 3.45758 -32.6601
ltibia 46.4657
lfoot -8.94793 1.66688
ltoes -14.9441
